<svg width="54" height="53" viewBox="0 0 54 53" fill="none" xmlns="http://www.w3.org/2000/svg">
<rect width="54" height="53" rx="8" fill="#FFE1E1"/>
<path d="M39.4134 17.4133L33.1467 23.68C32.4001 22.56 31.4401 21.6 30.3201 20.8533L36.5867 14.5867C37.3734 13.8 38.6401 13.8 39.4134 14.5867C40.2001 15.36 40.2001 16.6267 39.4134 17.4133Z" fill="#FF5A5A"/>
<path opacity="0.35" d="M24.3333 40.328C21.6013 40.328 18.8706 39.288 16.7906 37.2093C12.632 33.0507 12.632 26.284 16.7906 22.1253C20.9493 17.9667 27.716 17.9667 31.8746 22.1253C36.0333 26.284 36.0333 33.0507 31.8746 37.2093C29.796 39.288 27.0653 40.328 24.3333 40.328ZM24.3333 23.0027C22.6266 23.0027 20.9186 23.652 19.6186 24.952C17.02 27.552 17.02 31.7813 19.6186 34.38C22.2186 36.9787 26.4466 36.9787 29.0466 34.38C31.6453 31.78 31.6453 27.5507 29.0466 24.952C27.748 23.6533 26.04 23.0027 24.3333 23.0027Z" fill="#FF5A5A"/>
<path d="M38.3334 23C37.8121 23 37.3014 22.7973 36.9188 22.4147L31.5854 17.0813C31.0134 16.5093 30.8414 15.6493 31.1521 14.9013C31.4614 14.1533 32.1908 13.6667 33.0001 13.6667H38.3334C39.4388 13.6667 40.3334 14.5613 40.3334 15.6667V21C40.3334 21.8093 39.8468 22.5387 39.0988 22.848C38.8521 22.9507 38.5908 23 38.3334 23Z" fill="#FF5A5A"/>
</svg>